<?xml version="1.0" encoding="UTF-8"?>
<svg id="Layer_1" xmlns="http://www.w3.org/2000/svg" xmlns:xlink="http://www.w3.org/1999/xlink" version="1.1" viewBox="0 0 1024 1024">
  <!-- Generator: Adobe Illustrator 29.5.1, SVG Export Plug-In . SVG Version: 2.1.0 Build 141)  -->
  <defs>
    <style>
      .st0 {
        fill: #f1b263;
      }

      .st1 {
        fill: #e1e1e2;
      }

      .st2 {
        fill: url(#linear-gradient2);
      }

      .st3 {
        fill: url(#linear-gradient1);
      }

      .st4 {
        fill: url(#linear-gradient3);
      }

      .st5 {
        fill: url(#linear-gradient5);
      }

      .st6 {
        fill: url(#linear-gradient4);
      }

      .st7 {
        fill: url(#linear-gradient);
      }

      .st8 {
        fill: #f79d26;
      }

      .st9 {
        fill: #46b765;
      }

      .st10 {
        fill: #75b97a;
      }

      .st11 {
        fill: #249755;
      }

      .st12 {
        fill: #fff;
      }

      .st13 {
        fill: #c3c5c6;
      }

      .st14 {
        fill: #ec881a;
      }

      .st15 {
        fill: #a0c35d;
      }

      .st16 {
        fill: #fcc771;
      }
    </style>
    <linearGradient id="linear-gradient" x1="818.4" y1="239.3" x2="808.3" y2="-430.6" gradientTransform="translate(-139.6 342.8) scale(.8 -.8)" gradientUnits="userSpaceOnUse">
      <stop offset="0" stop-color="#fafafa"/>
      <stop offset="1" stop-color="#d6d7d8"/>
    </linearGradient>
    <linearGradient id="linear-gradient1" x1="321.3" y1="320.3" x2="735.5" y2="481.1" gradientUnits="userSpaceOnUse">
      <stop offset="0" stop-color="#c8de67"/>
      <stop offset="1" stop-color="#74a849"/>
    </linearGradient>
    <linearGradient id="linear-gradient2" x1="646.3" y1="548.6" x2="570.1" y2="552.7" gradientUnits="userSpaceOnUse">
      <stop offset="0" stop-color="#2f8950"/>
      <stop offset="1" stop-color="#4aa65b"/>
    </linearGradient>
    <linearGradient id="linear-gradient3" x1="544.6" y1="574.9" x2="429.5" y2="616.6" gradientUnits="userSpaceOnUse">
      <stop offset="0" stop-color="#348e52"/>
      <stop offset="1" stop-color="#4daa5c"/>
    </linearGradient>
    <linearGradient id="linear-gradient4" x1="293" y1="344.5" x2="399.8" y2="436.9" gradientUnits="userSpaceOnUse">
      <stop offset="0" stop-color="#fab743"/>
      <stop offset="1" stop-color="#f69a22"/>
    </linearGradient>
    <linearGradient id="linear-gradient5" x1="406.2" y1="594.3" x2="301.9" y2="628.5" gradientUnits="userSpaceOnUse">
      <stop offset="0" stop-color="#3b9856"/>
      <stop offset="1" stop-color="#51ae5b"/>
    </linearGradient>
  </defs>
  <rect class="st12" x="181.9" y="156.9" width="664.6" height="664.7" rx="159.5" ry="159.5"/>
  <g id="Generative_Object">
    <path class="st1" d="M841.1,309.3c1.3,68.8-1,137.7,0,206.5-17.9,2.9-25.5-16.3-40.7-19.5l-1.7-58.1c-.3-88.8,26.6-222.9-87.8-248.4-131.8-3-264.6.3-396.8-.8-47.3,7-85.7,45.7-92.8,92.8,1.2,123.2-1.6,249.3-1.7,370.5,0,40.5,17,75.8,51.3,97.9,2.8,1.8,2-1.7,3.4-.8s-1.6,2,.8,3.4c17.3,9.5,32.5,12.2,52.1,13.6l6.8,42.8-38.2-.4c-61.8-9-108.3-55.6-117-117.4v-428.2c9.7-60,56-107.1,116.6-115.7h429c91.4,19.1,115,75.8,116.6,161.9h.1Z"/>
    <path class="st13" d="M296,808.7l38.2.4-6.8-42.8c125.3,8.4,260.4-2.5,386.2-1.7,43.9-9.9,76.5-44.7,85.2-88.6-.2-79.2.3-158.6,0-237.8l1.7,58.1c15.2,3.2,22.8,22.4,40.7,19.5-1-68.8,1.3-137.7,0-206.5l.8,378.6c-6.1,64.2-57,115.2-120.8,122.5h-420.5c-.8-.5-4-1.6-4.7-1.7h0Z"/>
    <g>
      <path class="st7" d="M798.8,438.1c.3,79.3-.2,158.6,0,237.8-8.8,43.9-41.3,78.7-85.2,88.6-125.8-.8-260.9,10.1-386.2,1.7-19.6-1.3-34.9-4.1-52.1-13.6s-.1-2.9-.8-3.4c-1.4-.8-.6,2.6-3.4.8-34.2-22.1-51.3-57.4-51.3-97.9,0-121.2,2.9-247.3,1.7-370.5,7.1-47.1,45.6-85.9,92.8-92.8,132.2,1.2,265-2.2,396.8.8,114.4,25.5,87.4,159.7,87.8,248.4h0Z"/>
      <g>
        <path class="st1" d="M355.3,437.3c-4.1,31.3,1.3,80.2,15.3,107.3.1.3,2.6.3,4.2,3.4s-.9,2.4-.8,2.5c.6,1,2.9,0,3.4.8,1.2,2.3,1.4,8.2,1.7,8.5.9.8,5.5,0,5.9,2.5s-3,3.5-1.7,5.1,7.4.9,7.2,5.5l3.4-4.2c7.5,6,13.6,13.7,21.2,19.5,64.6,49.9,159.5,41.5,212.4-21.6,3-3.5,15.9-24.8,17.4-25s2.4,2.5,2.5,2.5c4.9,1,5.9-9.4,7.2-12.3s4.7-6.8,5.9-11-2-1.3-1.7-2.5,4.2-4.8,4.2-5.1c.4-2.4-2.2.5-2.5-.8-1.1-4,3.2-7.2,3.4-8.5.4-2.8-2.1-1.4-1.7-4.2,2.5-18.2,4.9-36.2,2.5-55.1-2.5-20.1-11.5-43-21.2-60.6,9.8,13.9,12.7,23.5,17.8,39.4.7,2.3,3.3,3.2,3.4,3.4.7,2.5-1.2,5.4-.8,6.8,4.2,17.5,5.9,31.5,5.1,50s-2.5,3.4-2.5,5.1,1.7,2.2,1.7,2.5c0,1.5-1.9,2-1.7,5.9s2.4.7,2.5,1.7c1.1,7.1-4.8,9.5-5.1,12.7s3.2,6.9,3.8,1.3c7.3,9.2,3,6.8,1.3,12.3s-1.2,5.1-3.4,10.2-9.4,22.6-13.6,28-13,12.1-17,18.7-3.8,12.9-4.2,13.6c-1.3,2.1-15.9,14.6-18.2,15.7s-4-.9-4.2-.8c-4.2,1.8-6.9,8.2-10.6,4.7-.2-2.7,3.4,2.2,3.4-.8,0-6.5-12,3.3-13.6,5.1s1.2,2.6.4,3c-1.5.7-.9-2.2-2.5-1.7s-3.6,3.9-4.2,4.2c-11.2,5.3-22.9,8.7-34.8,12.7-.3,0-5.2,4.2-5.9,4.2-6.1.6-6.3-5-6.8-5.1-.8-.2.4,1.8-1.3,2.1-9.4,1.9-26.9,1.1-36.9.4-9-.6-21.3-3.3-29.7-5.1-4.2-.9-13.1-.2-17-3.4s1.1-2.4.4-3c-7.6-6.7-6.4-4.7-14.8-7.2s-1-2.9-1.7-3.4c-1-.7-2.7,2.3-5.9,1.7s-15.3-7.1-16.5-8.1.3-3.1,0-3.4c-4.2-3.5-9.1-5.5-12.7-10.2s1.6-2.3.8-3.4c-1.9-2.7-6.2-6.2-9.3-7.6l1.3-1.3c-2.8-4.7-6.3-2.1-8.9-5.5s-.9-4.7-2.5-6.8-3.5-.8-3.8-1.3c-1.9-2.5-1.8-5.9-2.1-6.4s-4.5-2.4-5.1-3.4c-.9-1.6-1.3-9.2-1.7-10.2-1.5-3.1-5.9-5.7-7.6-12.7-.6-2.5,1.7-4.8,1.7-5.1-.1-1.6-4.8-2.9-5.1-5.1-.7-4.9,3.4-13.6,3.4-14.4,0-1.5-2.5-4.8-2.5-5.1-3-14.6-4.4-27.6-4.2-43.2s1.2-18.2,3.4-28.4h-.2Z"/>
        <path class="st1" d="M355.3,437.3c1.1-8.7,2-12.2,5.1-20.3-1.7,6.7-3.7,13.7-5.1,20.3Z"/>
        <path class="st1" d="M364.2,405.9c1.3.4-.3,3.4-.8,4.2-1.3-.4.3-3.4.8-4.2Z"/>
        <path class="st1" d="M640.2,378.8c0-.1-2.8-1.1-1.3-2.5,1.3.5,1.2,2.4,1.3,2.5Z"/>
        <path class="st1" d="M641.9,381.3c-.8-1.1-.8-.7-1.7-2.5,1.3,1.5.9,1.2,1.7,2.5Z"/>
        <path class="st1" d="M643.6,383.9c-.6-.9-1.2-1.9-1.7-2.5.3.5.9,1.2,1.7,2.5Z"/>
        <path class="st1" d="M361.3,414.4c.3-.7-.5-1.9.4-2.5,1.5,1.5-.4,2.4-.4,2.5Z"/>
        <path class="st1" d="M360.4,417c.3-1.1.5-1.6.8-2.5-.3,1.1-.5,1.6-.8,2.5Z"/>
      </g>
    </g>
  </g>
  <path class="st9" d="M564,471.1l-38.1,17.3v176.2c.2,7.8-5.8,14.6-13.4,15.7-13.2,1.9-48.3,1.4-62.1.2-3.4-.3-7.9-1.1-10.7-3.2-1.2-.9-5.1-6.8-5.1-7.6v-150.3l-36.9,10.9-1.1,139.5c-1.7,6-7.3,10-13.4,10.7-14.4,1.7-51.3,1.4-66,0s-15.9-5.5-15.9-12v-122.4c-17.5,2.5-34.4,10.8-50.1-1.3-22.7-17.5-12.2-51.9,15.3-56.9,10.7-2,23.8-1.9,34.8-2.7v-164.3c0-5.2,6.4-10.5,11.3-11.5,10.3-2.1,60.5-2,71.6-.5s13.4,6.3,13.4,11.9v146.5l36.6-13.5,1-136c1.8-5.9,8-8.5,13.7-9.1,13.9-1.5,48.3-1.6,62.2,0,2.9.3,7.2,1.5,9.5,3.2,1.2.9,5.1,6.8,5.1,7.6v102.1l37.9-19.9c1.3-4.7-1-9.2-1.1-13.7-.6-18.2-1.7-44.7,0-62.2,1-10.3,5.1-15.9,15.8-17.1,11.9-1.3,45.3-1.5,57,.1,2.7.4,7.1,1.9,9,3.7s5.7,9,5.7,9.6v20.9c2.1.5,2.6-.7,3.8-1.9,8.9-9.2,16.3-21.1,26.1-29.8l.6-2.5c-1.5,0-2.7-.8-3.8-1.9-10-9.5-32.8-28.1-38.6-38.9-6.4-11.9-1.3-22.2,11.3-25.3l126.6.3c9.1,2.7,11.6,9.2,12.3,18.1.5,6.7-1.5,12-1.4,17.7.6,28.7,3.5,58.8,1.4,87.6-.7,9.9-2.1,16.6-11.4,21.6-24.6,13.4-40-27.4-60.1-34.8-21.1,22.5-42.2,45-66.2,64.5l-1.2,252.5c-1.2,4.4-5.5,8.1-9.8,9.3-7.2,2.1-54.9,2-63.7.7-3.8-.5-12.2-5.7-12.2-9.4v-199.8h.3Z"/>
  <g id="Generative_Object1" data-name="Generative_Object">
    <path class="st11" d="M786.9,375.9c-3,12.6-16.9,17.5-28.4,13.4-8.4-3-38.7-38.5-41.5-38.1-20.1,24.5-42.8,46.9-67.9,66.2-24.8,19.1-52.2,34.8-79,50.5-.5,5.9.7,11.9.7,17.7l-1.7-6.7c-4.2-.6-3.6,1.3-6.4,2.7,0-1.8.8-9.6-1-10-6,5.2-32.1,12.7-35.8,17.4s-1.1-.3-1.3.3l-.3,44.5-.7-44.8c-26.6,12.1-54.3,21.2-82.3,29.4-.6.2-.3,1.3-.3,1.3-2.2.6-5.8.5-8.7,1.3-5,1.4-33.9,7.9-35.5,9.4-2.6,2.3-.5,4.5-2.3,8-.7-1.8,1.3-7.4-1.3-8-27.7,7.3-56.2,13.1-84.6,16.7-2.6.3-5.4.4-8,.7-24.4,2.7-60.9,10-61.6-26.8,2.5,7.8,9.1,16,17.1,18.7,20.6,7.2,114.3-13.2,139.9-19.4,119.1-29,242-83.1,321.9-178.7l43.5,40.8c5,1.8,8.8,2.7,14.1,1.3l11.7-8Z"/>
    <g>
      <path class="st3" d="M787.6,330.4c-.1,12.2,1.8,34.7-.7,45.5l-11.7,8c-5.3,1.3-9.1.4-14.1-1.3l-43.5-40.8c-79.9,95.5-202.7,149.7-321.9,178.7-25.6,6.2-119.3,26.6-139.9,19.4s-14.6-10.9-17.1-18.7c-.7-36.9,36.2-32.8,61.6-36.8s4.9-.9,7.4-1.3c25.2-4.1,50.1-8.2,74.9-14.1,4.9-1.2,9.8-2.8,14.7-4,12.2-3.1,24.1-6.4,36.1-10s4.9-1.2,7.4-2c27.9-8.7,55-18.8,81.6-30.8s1.8-.9,2.7-1.3c12.5-5.7,24.6-12.3,36.8-18.7,2.6-1.4,5.3-2.5,8-4,27.5-15.1,52.1-30.7,75.6-51.5,1.2-1.1,2.2-2.3,3.3-3.3,11-10.1,21.1-20,30.1-32.1s5.5-5,5.4-6.4c-5-6.5-40.1-40.1-40.8-44.8s9.6-10.5,14.4-11c20.2-2.4,90.4-2.5,110.4.7s10.4,4.8,11.7,9.7c4.8,17.6-.1,48.9,4,68.3.5,2.5.4,4.1,3.3,3Z"/>
      <path class="st15" d="M787.6,330.4c-3,1.1-2.8-.5-3.3-3-4.1-19.4.8-50.7-4-68.3-1.3-4.9-6.9-8.9-11.7-9.7-20-3.1-90.2-3.1-110.4-.7s-15.3,5.1-14.4,11,35.8,38.3,40.8,44.8c.1,1.4-4.5,5.2-5.4,6.4l-43.5-43.8c-4.7-9.8,0-20.5,9.7-24.4h130.5c2.9,1.7,6.5,3.4,8.4,6.4,5.2,8.1,3.5,67.8,3.3,81.3Z"/>
      <g>
        <path class="st2" d="M649.1,417.3v251.9c-1.3,3.2-2.8,6.3-5.7,8.4-6.6,4.7-52.3,4.3-62.6,3.3-3.3-4.1-8.6-6-10-11.7,0-61.2,0-122.5,0-183.7,0-5.9-1.2-11.8-.7-17.7,26.8-15.8,54.2-31.5,79-50.5Z"/>
        <path class="st8" d="M649.1,343.1c-1.2,1.1-2.1,2.2-3.3,3.3,3.5-6,1.8-13.9,1.7-20.7-22.7,23.3-49.2,42.6-77.3,58.9l-.7-59.9c-.2-8.7,4.9-10.8,8.7-17.1,9.1-1.2,50-1.5,58.6,0,16.5,2.8,11.8,23.6,12.4,35.5Z"/>
        <path class="st10" d="M570.8,485.6c0,61.2,0,122.5,0,183.7,1.4,5.7,6.7,7.6,10,11.7-8.6-.8-14.8-2.7-18.1-11.7-1.6-62.5,2.2-125.3,0-187.7,2.8-1.4,2.1-3.3,6.4-2.7l1.7,6.7Z"/>
        <path class="st16" d="M578.2,307.6c-3.8,6.3-8.9,8.3-8.7,17.1l.7,59.9s.1.2-.7.7c-2.3,1.3-4.5,3.2-7.4,3.3,0-17.2-2.8-54.5,0-69.3s10.3-11,16.1-11.7Z"/>
        <path class="st8" d="M570.1,397.9c-2.7,1.5-5.4,2.6-8,4v-13.4c2.8-.1,5.1-2,7.4-3.3l.7,12.7Z"/>
        <path class="st14" d="M645.8,346.4c-23.6,20.8-48.2,36.5-75.6,51.5l-.7-12.7c.8-.5.6-.6.7-.7,28.1-16.3,54.6-35.5,77.3-58.9.2,6.9,1.8,14.7-1.7,20.7Z"/>
      </g>
    </g>
    <g>
      <g>
        <path class="st4" d="M526,488.9l-.7,181.7c-.5,1.8-4.1,6-5.7,7-7.1,4.7-57,4.3-67.9,3.3-4.1-4-9-6.3-10.7-12.4v-148.9c0,0-.2-1.2.3-1.3,28-8.3,55.7-17.4,82.3-29.4l.7,44.8.3-44.5c.2-.6,1.3-.2,1.3-.3Z"/>
        <path class="st8" d="M525.3,420.7c-.9.4-1.8.9-2.7,1.3l-1-12c-25.6,13.6-52.9,24.3-80.6,32.8v-124.1l8.7-11c9.7-1.3,51.9-1.5,61.2,0,5.5.9,12.7,6.1,13.7,11.7l.7,101.4Z"/>
        <path class="st10" d="M441,519.7v148.9c1.7,6.1,6.6,8.4,10.7,12.4-8.6-.7-14.9-2.9-18.1-11.7-1-48.3,1.4-96.9,0-145.2,0-1.2.7-3.3-1.3-3,2.9-.8,6.5-.7,8.7-1.3Z"/>
        <path class="st16" d="M441,442.8c-2.5.8-4.6,2.4-7.4,2v-124.8c2-7.1,9.1-11.4,16.1-12.4l-8.7,11v124.1Z"/>
        <path class="st0" d="M441,442.8v10c-2.4.8-4.9,1.3-7.4,2v-10c2.8.4,4.9-1.2,7.4-2Z"/>
        <path class="st8" d="M522.6,422c-26.6,12-53.8,22.1-81.6,30.8v-10c27.8-8.5,55-19.2,80.6-32.8l1,12Z"/>
      </g>
      <g>
        <path class="st6" d="M397.5,464.9c-4.9,1.2-9.8,2.9-14.7,4,5.3-4.6,15.3-.3,10.4-11.4l-85.3,18.1v-156.2c1-5.5,6.1-7.4,8.7-11.7,11.2-1.4,56.7-1.7,67.3,0s12.1,6.2,13,11l.7,146.2Z"/>
        <path class="st16" d="M316.5,307.6c-2.6,4.3-7.7,6.2-8.7,11.7v163.6c-2.4.4-4.9,1-7.4,1.3v-165.6c2.5-6.8,9.2-10.2,16.1-11Z"/>
        <path class="st10" d="M308.5,547.2v122.1c1.4,5.4,5.7,7.9,9.4,11.7-8-.7-13.5-2.4-16.7-10.4l-.7-122.8c2.6-.3,5.4-.3,8-.7Z"/>
        <path class="st8" d="M382.8,468.9c-24.8,5.8-49.8,10-74.9,14.1v-7.4l85.3-18.1c5,11.1-5,6.8-10.4,11.4Z"/>
        <g>
          <path class="st5" d="M396.8,530.4v136.8c-.4,7.4-7.5,12.7-14.4,13.7-12.4,1.9-51.3,1.2-64.6,0-3.6-3.8-8-6.3-9.4-11.7v-122.1c28.4-3.6,57-9.4,84.6-16.7,2.7.6.6,6.2,1.3,8,1.9-3.6-.2-5.7,2.3-8Z"/>
          <polygon class="st11" points="394.5 547.2 395.2 553.9 394.5 550.5 393.5 550.8 394.5 547.2"/>
          <path class="st11" d="M394.5,540.5c.5,0,.5,3.3,0,3.3-.6-.5-.5-3.3,0-3.3Z"/>
          <path class="st11" d="M394.5,544.5c.3,0,.5.6.3,1-.4,2.5-1.2-1-.3-1Z"/>
        </g>
      </g>
    </g>
  </g>
</svg>