<?xml version="1.0" encoding="UTF-8"?>
<svg id="Layer_1" xmlns="http://www.w3.org/2000/svg" version="1.1" viewBox="0 0 360 360">
  <!-- Generator: Adobe Illustrator 29.5.1, SVG Export Plug-In . SVG Version: 2.1.0 Build 141)  -->
  <defs>
    <style>
      .st0, .st1 {
        fill: #46b865;
      }

      .st2 {
        fill: #fff;
      }

      .st1 {
        font-family: Avenir-Black, Avenir;
        font-size: 37.8px;
        font-weight: 800;
      }
    </style>
  </defs>
  <path class="st0" d="M216.4,108.9l-13.7,6.2v63.5c0,2.8-2.1,5.3-4.8,5.7-4.7.7-17.4.5-22.4,0s-2.9-.4-3.9-1.2-1.8-2.4-1.8-2.7v-54.2l-13.3,3.9-.4,50.3c-.6,2.2-2.6,3.6-4.8,3.9-5.2.6-18.5.5-23.8,0s-5.7-2-5.7-4.3v-44.1c-6.3.9-12.4,3.9-18.1-.5-8.2-6.3-4.4-18.7,5.5-20.5,3.8-.7,8.6-.7,12.5-1v-59.2c0-1.9,2.3-3.8,4.1-4.1,3.7-.8,21.8-.7,25.8-.2s4.8,2.3,4.8,4.3v52.8l13.2-4.9.4-49c.6-2.1,2.9-3.1,5-3.3,5-.5,17.4-.6,22.4,0s2.6.5,3.4,1.2,1.8,2.4,1.8,2.7v36.8l13.6-7.2c.5-1.7-.3-3.3-.4-4.9-.2-6.5-.6-16.1,0-22.4s1.8-5.7,5.7-6.2c4.3-.5,16.3-.5,20.5,0s2.5.7,3.3,1.3,2,3.2,2,3.4v7.5c.8.2.9-.2,1.4-.7,3.2-3.3,5.9-7.6,9.4-10.7l.2-.9c-.5,0-1-.3-1.4-.7-3.6-3.4-11.8-10.1-13.9-14-2.3-4.3-.5-8,4.1-9.1h45.6c3.3,1.1,4.2,3.4,4.4,6.6.2,2.4-.5,4.3-.5,6.4.2,10.3,1.3,21.2.5,31.6-.3,3.6-.8,6-4.1,7.8-8.9,4.8-14.4-9.9-21.7-12.5-7.6,8.1-15.2,16.2-23.8,23.2l-.4,91c-.4,1.6-2,2.9-3.5,3.3-2.6.7-19.8.7-23,.3s-4.4-2-4.4-3.4v-72Z"/>
  <path class="st2" d="M208.2,214v36.8c0,1.2,2.4,5.7,3.4,6.6,5,4.8,15.8,4.1,19.1-2.4s1.3-3.5,1.3-3.8v-37.3h11v38.6c0,1.1-1.4,5.1-2,6.3-7.2,15.5-35.4,15-42.2-.6s-1.6-4.6-1.6-5.3v-39.1h11Z"/>
  <path class="st2" d="M261.7,262.5v22.4h-10.5v-56.7h10.1v6.9c1.4.1,1.5-1.6,2.3-2.5,7.8-9,22.4-4.7,26.1,5.9,2.6,7.4,1.9,19.9-3,26.3-4.8,6.2-15.8,7.6-21.7,2.1-1.3-1.2-1.9-3.2-3.2-4.4ZM269.8,236.6c-8.2.7-9.1,10.9-7.5,17.3,2.6,10.5,16.3,10.1,17.6-.7.8-7.2-.7-17.3-10.1-16.5Z"/>
  <path class="st2" d="M192.2,228.2c-5.7,14.1-9.9,29-15.7,43.1-2.6,6.3-4.4,11.3-11.7,13s-7.7.8-11.5-.3l2.8-8.2c2.6,1.2,6.2.3,7.7-2.1s.2-6.4-.8-9.5c-4-12-9.4-24-13.7-35.9h11.7l10.1,30.2,9.6-30.2h11.7Z"/>
  <path class="st2" d="M106.2,269.4h-10.5v-5s-5.3,4.5-5.3,4.5c-7.2,3.5-19.1,1.3-20.2-8s1.2-11.9,8.3-14,14.1-1.5,15.9-2.8.2-7.3-2.6-7.9-5.1-.2-6.5.1c-2.4.6-3.6,3.9-3.9,3.9h-10.3c1.3-14.6,26.5-16.2,33-5.8s2.2,5.1,2.2,6.5v28.6ZM95.7,251.1c-4.1.7-16.3.5-15.5,7s9.5,4.7,12.9,2.1,2.7-6,2.6-9.1Z"/>
  <path class="st2" d="M332.1,240.1h-10.3c-1.6-3.8-4.6-5-8.7-4.6-5.9.6-7,6.5-.9,8.7s19.6.6,20.8,11.2c2.2,19-34.2,20.1-36.1,2.5h9.4c0,0,.4-.5.7-.3.5.3,1,2,1.8,2.8,3.5,3.4,14.1,3.4,13.7-2.7-.3-5-13.2-5.4-17-6.8-10.5-3.9-10.2-17.6,0-21.7,9.2-3.7,26.1-1.6,26.6,10.9Z"/>
  <polygon class="st2" points="70.6 214 70.6 223.2 54.6 223.2 54.6 269.4 43.6 269.4 43.6 223.2 27.6 223.2 27.6 214 70.6 214"/>
  <rect class="st2" x="114.9" y="214" width="11" height="55.3"/>
  <rect class="st2" x="134.1" y="214" width="11" height="55.3"/>
  <text class="st1" transform="translate(247.1 314.1)"><tspan x="0" y="0">.com</tspan></text>
</svg>